<svg id="Layer_1" data-name="Layer 1" xmlns="http://www.w3.org/2000/svg" viewBox="0 0 488.25 487.3"><defs><style>.cls-1{fill:none;stroke:#000;stroke-miterlimit:10;stroke-width:14px;}.cls-2,.cls-3{font-size:22.1px;}.cls-2{font-family:CirthEreborCaps2, Cirth Erebor Caps-2;}.cls-3{font-family:CirthErebor, Cirth Erebor;}.cls-4{font-size:137.14px;font-family:Brandish, Brandish;}</style></defs><title>Shinworks</title><path class="cls-1" d="M491.4,199.11l-14.93-43.77L410,167.13a176.87,176.87,0,0,0-46.34-52.79l15.46-51.08L335.63,41.48,304,84.58a176.55,176.55,0,0,0-72.7-4.87l-31-59.3L156.48,35.34l11.69,65.89a176.4,176.4,0,0,0-53.32,46.61L63.9,132.41,42.12,176l42.95,31.56a176.6,176.6,0,0,0-5,72.17L20.28,310.94l14.93,43.77L101.41,343A176.76,176.76,0,0,0,148,396.56L132.8,446.9l43.53,21.78,31.09-42.31a176.51,176.51,0,0,0,73.4,5.06l30.94,59.16,43.76-14.93-11.66-65.73a176.55,176.55,0,0,0,53.2-46.44l50.48,15.28,21.78-43.53L426.87,304a176.58,176.58,0,0,0,4.94-73.77Z" transform="translate(-11.71 -11.85)"/><circle class="cls-1" cx="244.29" cy="243.73" r="112.14"/><text class="cls-2" transform="translate(251.56 379.1) rotate(178.08)">}</text><text class="cls-2" transform="matrix(-1, -0.08, 0.08, -1, 246.42, 379.85)">%</text><text class="cls-3" transform="translate(221.67 377.67) rotate(-166.82)">.</text><text class="cls-3" transform="matrix(-0.94, -0.35, 0.35, -0.94, 205.43, 373.9)">@</text><text class="cls-3" transform="translate(189.72 367.86) rotate(-155.05)">{</text><text class="cls-3" transform="matrix(-0.87, -0.49, 0.49, -0.87, 184.87, 365.87)">R</text><text class="cls-3" transform="translate(170.35 357.65) rotate(-143.37)">G</text><text class="cls-3" transform="matrix(-0.73, -0.68, 0.68, -0.73, 156.99, 347.63)">a</text><text class="cls-3" transform="translate(147.08 338.57) rotate(-130.72)">h</text><text class="cls-3" transform="translate(136.27 325.66) rotate(-126.07)">I</text><text class="cls-3" transform="translate(132.98 321.58) rotate(-121.41)">b</text><text class="cls-3" transform="translate(124.27 307.36) rotate(-114.34)">4</text><text class="cls-3" transform="matrix(-0.3, -0.96, 0.96, -0.3, 117.37, 292.18)">.</text><text class="cls-3" transform="translate(112.4 276.27) rotate(-100.19)">R</text><text class="cls-3" transform="translate(109.64 259.68) rotate(-95.56)">I</text><text class="cls-3" transform="translate(108.89 254.48) rotate(-90.98)">0</text><text class="cls-3" transform="translate(108.58 237.81) rotate(-83.97)">v</text><text class="cls-3" transform="translate(110.57 221.11) rotate(-79.3)">O</text><text class="cls-2" transform="translate(110.96 215.95) rotate(-72.89)">$</text><text class="cls-3" transform="matrix(0.44, -0.9, 0.9, 0.44, 118.54, 192.27)">v</text><text class="cls-3" transform="matrix(0.54, -0.84, 0.84, 0.54, 125.79, 177.26)">4</text><text class="cls-3" transform="translate(134.84 163.24) rotate(-50.06)">v</text><text class="cls-3" transform="matrix(0.73, -0.68, 0.68, 0.73, 145.54, 150.43)">g</text><text class="cls-3" transform="translate(157.71 139.02) rotate(-36.04)">t</text><text class="cls-3" transform="translate(171.16 129.19) rotate(-29)">R</text><text class="cls-3" transform="matrix(0.93, -0.37, 0.37, 0.93, 185.76, 121.07)">.</text><text class="cls-3" transform="matrix(0.97, -0.26, 0.26, 0.97, 201.21, 114.83)">1</text><text class="cls-3" transform="translate(217.32 110.54) rotate(-7.78)">8</text><text class="cls-2" transform="matrix(1, -0.07, 0.07, 1, 233.97, 108.52)">}</text><text class="cls-2" transform="translate(239.13 107.62) rotate(3.11)">%</text><text class="cls-3" transform="matrix(0.98, 0.21, -0.21, 0.98, 263.95, 109.25)">.</text><text class="cls-3" transform="translate(280.26 112.65) rotate(18.97)">@</text><text class="cls-3" transform="translate(296.09 118.33) rotate(23.65)">{</text><text class="cls-3" transform="translate(300.97 120.2) rotate(28.32)">R</text><text class="cls-3" transform="translate(315.68 128.09) rotate(35.34)">G</text><text class="cls-3" transform="matrix(0.75, 0.66, -0.66, 0.75, 329.27, 137.81)">a</text><text class="cls-3" transform="matrix(0.67, 0.74, -0.74, 0.67, 339.39, 146.67)">h</text><text class="cls-3" transform="matrix(0.61, 0.79, -0.79, 0.61, 350.48, 159.32)">I</text><text class="cls-3" transform="matrix(0.54, 0.84, -0.84, 0.54, 353.85, 163.33)">b</text><text class="cls-3" transform="translate(362.88 177.34) rotate(64.36)">4</text><text class="cls-3" transform="translate(370.12 192.36) rotate(71.45)">.</text><text class="cls-3" transform="translate(375.46 208.17) rotate(78.53)">R</text><text class="cls-3" transform="translate(378.58 224.7) rotate(83.17)">I</text><text class="cls-3" transform="translate(379.46 229.85) rotate(87.87)">0</text><text class="cls-3" transform="matrix(-0.08, 1, -1, -0.08, 380.13, 246.54)">v</text><text class="cls-3" transform="matrix(-0.16, 0.99, -0.99, -0.16, 378.52, 263.26)">O</text><text class="cls-2" transform="translate(378.25 268.45) rotate(105.82)">$</text><text class="cls-3" transform="translate(371.21 292.28) rotate(114.61)">v</text><text class="cls-3" transform="matrix(-0.52, 0.85, -0.85, -0.52, 364.28, 307.46)">4</text><text class="cls-3" transform="translate(355.56 321.66) rotate(128.66)">v</text><text class="cls-3" transform="translate(345.15 334.71) rotate(135.66)">g</text><text class="cls-3" transform="translate(333.25 346.39) rotate(142.67)">t</text><text class="cls-3" transform="translate(319.99 356.53) rotate(149.72)">R</text><text class="cls-3" transform="translate(305.61 364.96) rotate(156.79)">.</text><text class="cls-3" transform="matrix(-0.96, 0.28, -0.28, -0.96, 290.3, 371.56)">1</text><text class="cls-3" transform="translate(274.27 376.22) rotate(170.94)">8</text><text class="cls-4" transform="translate(204.86 298.13)">S</text></svg>